# xmcd
#
# Track frame offsets:
# 187
# 19207
# 30527
# 43780
# 57580
# 80087
# 93127
# 103882
# 120577
# 131120
# 143355
# 156437
#
# Disc length: 2124 seconds
#
#
# Revision: 3
# Processed by: cddbd v1.5.1PL0 Copyright (c) Steve Scherf et al.
# Submitted via: FreeRIP 2.80 
#
DISCID=a2084a0c
DTITLE=Bill Monroe and The Bluegrass Boys - Live At The Opry
DYEAR=1989
DGENRE=Bluegrass
TTITLE0=New Mule Skinner Blues
TTITLE1=Molly And Tenbrooks
TTITLE2=Footprints In The Snow
TTITLE3=Sittin' Alone In The Moonlight
TTITLE4=Precious Memories
TTITLE5=Rawhide
TTITLE6=My Sweet Darlin'
TTITLE7=In The Pines
TTITLE8=Love, Please Come Home
TTITLE9=Pike County Breakdown
TTITLE10=I'm Working On A Building
TTITLE11=Theme
EXTD=
EXTT0=
EXTT1=
EXTT2=
EXTT3=
EXTT4=
EXTT5=
EXTT6=
EXTT7=
EXTT8=
EXTT9=
EXTT10=
EXTT11=
PLAYORDER=
